<?xml version="1.0" encoding="utf-8"?>
<!-- Generator: Adobe Illustrator 22.0.1, SVG Export Plug-In . SVG Version: 6.00 Build 0)  -->
<svg version="1.1" id="Layer_1" xmlns="http://www.w3.org/2000/svg" xmlns:xlink="http://www.w3.org/1999/xlink" x="0px" y="0px" width="250.667px" height="87.667px"
	 viewBox="0 0 250.7 87.7" style="enable-background:new 0 0 250.7 87.7;" xml:space="preserve">
<style type="text/css">
	.st0{fill:#FFFFFF;}
	.st1{fill:#295AA5;}
	.st2{fill:#F1C930;}
</style>
<g>
	<path class="st0" d="M24.2,75.2c-1,0.2-2.1,0.2-3.1,0.2c-5,0-10.1-2.1-12.4-6.6c-0.8-1.5-1.1-3.1-1.1-4.8l0.2-27.7
		c-0.1-0.1-0.2-0.2-0.3-0.2c-0.7-0.6-1.3-1.3-1.8-1.9C2.6,30.5,1,26,1,21.2v0c0-5.4,2.2-10.5,6-14.3c3.8-3.8,9-6,14.4-5.9
		c5.4,0,10.5,2.2,14.3,6l0.6,0.6v0c0.9,0.9,1.6,2,2.3,3.1c4-1.3,8.2-2,12.4-2c21.2,0.1,38.5,17.5,38.4,38.8
		C89.3,68.7,71.9,86,50.6,85.9C40.7,85.8,31.3,82,24.2,75.2L24.2,75.2z"/>
	<path class="st1" d="M24.9,73.1c-1.2,0.3-2.4,0.4-3.7,0.4c-3.2,0-5.9-0.8-8.1-2.5l0,0h0c-0.5-0.4-1-0.9-1.5-1.4
		c-0.5-0.5-0.8-1.1-1.1-1.6c-0.6-1.2-0.9-2.5-0.9-3.9l0.2-28.6c-0.3-0.3-0.6-0.5-0.9-0.8c-0.6-0.6-1.1-1.1-1.7-1.8
		C4.5,29.8,2.9,25.7,3,21.2v0c0-5.1,2.1-9.6,5.5-12.9c3.3-3.3,7.9-5.3,13-5.3h0h0c5.1,0,9.6,2.1,12.9,5.5v0c1.4,1.4,2.5,3,3.4,4.7
		c4.1-1.6,8.6-2.5,13.3-2.4c20.2,0.1,36.5,16.6,36.4,36.8S70.8,84,50.6,83.9C40.6,83.8,31.5,79.7,24.9,73.1L24.9,73.1z"/>
	<path class="st0" d="M27.9,69.1c-1.8,1.4-4,2-6.8,2c-2.7,0-4.9-0.7-6.7-2.1c-1.7-1.4-2.6-3.1-2.6-5.3L12,34.3
		c-4.1-2.9-6.8-7.8-6.8-13.2c0-8.8,7.3-16,16.1-16c8.8,0,16,7.3,16,16.1c0,5.3-2.6,10-6.6,12.9l-0.2,29.7
		C30.6,66,29.7,67.8,27.9,69.1L27.9,69.1z"/>
	<path class="st2" d="M21.4,8.2c7.2,0,13,5.9,13,13.1c0,7.2-5.9,13-13.1,13s-13-5.9-13-13.1C8.3,14,14.2,8.2,21.4,8.2L21.4,8.2z"/>
	<path class="st0" d="M83.3,54.4c-0.4,4.5-2.6,7.9-6.7,10.3c-4.1,2.3-9.9,3.5-17.4,3.4c-8.2,0-14.5-1.8-18.9-5.4
		c-4.4-3.6-6.6-8.6-6.5-15.2c0-7,2.4-12.3,7-16.1c4.6-3.8,11.1-5.7,19.5-5.6c7.9,0,13.9,2,17.9,6s6,9.8,5.9,17.5l0,1.4l-34.9-0.2
		c0.1,2.9,1.1,5.2,3,6.8c1.9,1.7,4.4,2.5,7.5,2.5c2.4,0,4.4-0.5,5.9-1.4c1.5-1,2.4-2.3,2.6-4L83.3,54.4L83.3,54.4z M49.4,42.2
		L69,42.3c-0.1-2.5-1-4.5-2.7-6c-1.7-1.4-4-2.2-7-2.2c-3,0-5.3,0.7-7,2.1C50.6,37.6,49.6,39.6,49.4,42.2L49.4,42.2z"/>
</g>
<g>
	<path class="st1" d="M91.9,79.5H90V68.7h1.9V79.5z"/>
	<path class="st1" d="M95.7,71.5l0.1,0.9c0.6-0.7,1.4-1.1,2.3-1.1c1.7,0,2.5,1,2.5,2.9v5.3h-1.8v-5.2c0-0.5-0.1-0.9-0.3-1.1
		c-0.2-0.2-0.6-0.4-1.1-0.4c-0.7,0-1.3,0.3-1.6,1v5.7H94v-8C94,71.5,95.7,71.5,95.7,71.5z"/>
	<path class="st1" d="M104.7,69.6v1.9h1.4v1.3h-1.4v4.5c0,0.3,0.1,0.5,0.2,0.7s0.3,0.2,0.6,0.2c0.2,0,0.4,0,0.6-0.1v1.4
		c-0.4,0.1-0.8,0.2-1.2,0.2c-1.4,0-2.1-0.8-2.1-2.3v-4.5h-1.3v-1.3h1.3v-1.9L104.7,69.6L104.7,69.6z"/>
	<path class="st1" d="M111,79.6c-1.1,0-2.1-0.4-2.8-1.1c-0.7-0.7-1.1-1.7-1.1-2.9v-0.2c0-0.8,0.2-1.5,0.5-2.1
		c0.3-0.6,0.7-1.1,1.3-1.5c0.6-0.3,1.2-0.5,1.9-0.5c1.1,0,1.9,0.3,2.5,1s0.9,1.7,0.9,2.9v0.7H109c0.1,0.7,0.3,1.2,0.7,1.6
		c0.4,0.4,0.9,0.6,1.5,0.6c0.8,0,1.5-0.3,2-1l1,0.9c-0.3,0.5-0.7,0.8-1.3,1.1C112.2,79.5,111.6,79.6,111,79.6z M110.8,72.8
		c-0.5,0-0.9,0.2-1.2,0.5s-0.5,0.8-0.6,1.4h3.4v-0.1c0-0.6-0.2-1.1-0.5-1.4C111.7,72.9,111.3,72.8,110.8,72.8z"/>
	<path class="st1" d="M119.8,73.1c-0.2,0-0.5-0.1-0.7-0.1c-0.8,0-1.4,0.3-1.7,0.9v5.5h-1.8v-8h1.7l0,0.9c0.4-0.7,1-1,1.8-1
		c0.3,0,0.5,0,0.6,0.1L119.8,73.1z"/>
	<path class="st1" d="M124,78.2c0.4,0,0.8-0.1,1.1-0.4s0.5-0.6,0.5-1h1.7c0,0.5-0.2,1-0.5,1.4s-0.7,0.8-1.2,1
		c-0.5,0.3-1,0.4-1.6,0.4c-1.1,0-2-0.4-2.7-1.1c-0.7-0.7-1-1.7-1-3v-0.2c0-1.2,0.3-2.2,1-2.9c0.7-0.7,1.5-1.1,2.7-1.1
		c0.9,0,1.7,0.3,2.3,0.8s0.9,1.3,0.9,2.2h-1.7c0-0.5-0.2-0.8-0.5-1.1c-0.3-0.3-0.7-0.4-1.1-0.4c-0.6,0-1,0.2-1.3,0.6
		c-0.3,0.4-0.5,1.1-0.5,1.9v0.3c0,0.9,0.2,1.5,0.5,1.9C123,78,123.5,78.2,124,78.2z"/>
	<path class="st1" d="M133.5,79.5c-0.1-0.2-0.1-0.4-0.2-0.7c-0.6,0.6-1.3,0.9-2.1,0.9c-0.8,0-1.5-0.2-2-0.7c-0.5-0.5-0.8-1-0.8-1.7
		c0-0.9,0.3-1.5,0.9-2c0.6-0.5,1.5-0.7,2.7-0.7h1.1v-0.5c0-0.4-0.1-0.7-0.3-1c-0.2-0.2-0.6-0.4-1.1-0.4c-0.4,0-0.7,0.1-1,0.3
		c-0.3,0.2-0.4,0.5-0.4,0.8h-1.8c0-0.4,0.1-0.8,0.4-1.2c0.3-0.4,0.7-0.7,1.2-0.9c0.5-0.2,1.1-0.3,1.7-0.3c0.9,0,1.7,0.2,2.2,0.7
		c0.6,0.5,0.8,1.1,0.9,2v3.6c0,0.7,0.1,1.3,0.3,1.7v0.1L133.5,79.5L133.5,79.5z M134.5,70.2L134.5,70.2l-1.4,0.1l-1.1-1.2l-1.1,1.2
		l-1.4,0v-0.1l2-2h1.1L134.5,70.2z M131.5,78.2c0.4,0,0.7-0.1,1-0.3c0.3-0.2,0.5-0.4,0.7-0.7v-1.5h-1c-0.7,0-1.2,0.1-1.5,0.3
		s-0.5,0.6-0.5,1c0,0.3,0.1,0.6,0.3,0.8C130.8,78.1,131.1,78.2,131.5,78.2z"/>
	<path class="st1" d="M138.5,71.5l0.1,0.8c0.6-0.7,1.3-1,2.3-1c1.1,0,1.8,0.4,2.2,1.2c0.6-0.8,1.4-1.2,2.5-1.2c0.9,0,1.5,0.2,2,0.7
		c0.4,0.5,0.7,1.2,0.7,2.2v5.3h-1.8v-5.2c0-0.5-0.1-0.9-0.3-1.1s-0.6-0.4-1.1-0.4c-0.4,0-0.7,0.1-1,0.3c-0.3,0.2-0.4,0.5-0.5,0.9
		l0,5.5h-1.8v-5.3c0-0.9-0.5-1.4-1.4-1.4c-0.7,0-1.2,0.3-1.5,0.9v5.8h-1.8v-8C136.9,71.5,138.5,71.5,138.5,71.5z"/>
	<path class="st1" d="M157,75.6c0,1.2-0.3,2.2-0.8,3c-0.6,0.7-1.3,1.1-2.3,1.1c-0.9,0-1.7-0.3-2.2-1l-0.1,0.9H150V68.1h1.8v4.1
		c0.5-0.6,1.2-0.9,2.1-0.9c1,0,1.7,0.4,2.3,1.1s0.8,1.7,0.8,3V75.6z M155.2,75.4c0-0.9-0.2-1.5-0.5-1.9s-0.7-0.7-1.3-0.7
		c-0.8,0-1.3,0.3-1.6,1v3.3c0.3,0.7,0.9,1,1.7,1c0.6,0,1-0.2,1.3-0.6c0.3-0.4,0.5-1.1,0.5-1.9L155.2,75.4L155.2,75.4z"/>
	<path class="st1" d="M158.5,69.4c0-0.3,0.1-0.5,0.3-0.7c0.2-0.2,0.4-0.3,0.8-0.3c0.3,0,0.6,0.1,0.8,0.3c0.2,0.2,0.3,0.4,0.3,0.7
		c0,0.3-0.1,0.5-0.3,0.7c-0.2,0.2-0.4,0.3-0.8,0.3c-0.3,0-0.6-0.1-0.8-0.3S158.5,69.7,158.5,69.4z M160.4,79.5h-1.8v-8h1.8V79.5z"/>
	<path class="st1" d="M162.1,75.4c0-0.8,0.2-1.5,0.5-2.1s0.7-1.1,1.3-1.4c0.6-0.3,1.2-0.5,1.9-0.5c1.1,0,2,0.3,2.6,1s1,1.6,1.1,2.8
		l0,0.4c0,0.8-0.2,1.5-0.5,2.1c-0.3,0.6-0.7,1.1-1.3,1.4c-0.6,0.3-1.2,0.5-2,0.5c-1.1,0-2-0.4-2.7-1.1
		C162.4,77.8,162.1,76.8,162.1,75.4L162.1,75.4L162.1,75.4z M163.9,75.6c0,0.8,0.2,1.5,0.5,1.9c0.3,0.5,0.8,0.7,1.4,0.7
		c0.6,0,1.1-0.2,1.4-0.7c0.3-0.5,0.5-1.2,0.5-2.1c0-0.8-0.2-1.4-0.5-1.9c-0.3-0.5-0.8-0.7-1.4-0.7c-0.6,0-1.1,0.2-1.4,0.7
		C164,73.9,163.9,74.6,163.9,75.6z"/>
	<path class="st1" d="M192.2,77.1l2.7-8.4h2.1l-3.9,10.8h-1.8l-3.9-10.8h2L192.2,77.1z"/>
	<path class="st1" d="M198,69.4c0-0.3,0.1-0.5,0.3-0.7c0.2-0.2,0.4-0.3,0.8-0.3c0.3,0,0.6,0.1,0.8,0.3c0.2,0.2,0.3,0.4,0.3,0.7
		c0,0.3-0.1,0.5-0.3,0.7c-0.2,0.2-0.4,0.3-0.8,0.3c-0.3,0-0.6-0.1-0.8-0.3S198,69.7,198,69.4z M199.9,79.5h-1.8v-8h1.8V79.5z"/>
	<path class="st1" d="M206.6,79.5c-0.1-0.2-0.1-0.4-0.2-0.7c-0.6,0.6-1.3,0.9-2.1,0.9c-0.8,0-1.5-0.2-2-0.7c-0.5-0.5-0.8-1-0.8-1.7
		c0-0.9,0.3-1.5,0.9-2c0.6-0.5,1.5-0.7,2.7-0.7h1.1v-0.5c0-0.4-0.1-0.7-0.3-1c-0.2-0.2-0.6-0.4-1.1-0.4c-0.4,0-0.7,0.1-1,0.3
		c-0.3,0.2-0.4,0.5-0.4,0.8h-1.8c0-0.4,0.1-0.8,0.4-1.2c0.3-0.4,0.7-0.7,1.2-0.9c0.5-0.2,1.1-0.3,1.7-0.3c0.9,0,1.7,0.2,2.2,0.7
		c0.6,0.5,0.8,1.1,0.9,2v3.6c0,0.7,0.1,1.3,0.3,1.7v0.1L206.6,79.5L206.6,79.5z M204.7,78.2c0.4,0,0.7-0.1,1-0.3
		c0.3-0.2,0.5-0.4,0.7-0.7v-1.5h-1c-0.7,0-1.2,0.1-1.5,0.3s-0.5,0.6-0.5,1c0,0.3,0.1,0.6,0.3,0.8C204,78.1,204.3,78.2,204.7,78.2z"
		/>
	<path class="st1" d="M209.7,75.4c0-1.2,0.3-2.2,0.9-3c0.6-0.7,1.4-1.1,2.3-1.1c0.9,0,1.6,0.3,2.1,1l0.1-0.8h1.6v7.7
		c0,1-0.3,1.9-1,2.5c-0.7,0.6-1.5,0.9-2.6,0.9c-0.6,0-1.2-0.1-1.7-0.4c-0.6-0.2-1-0.6-1.3-1l0.9-1.1c0.6,0.7,1.2,1,2,1
		c0.6,0,1.1-0.2,1.4-0.5c0.3-0.3,0.5-0.8,0.5-1.4v-0.5c-0.5,0.6-1.2,0.9-2.1,0.9c-0.9,0-1.7-0.4-2.3-1.1
		C210,77.8,209.7,76.7,209.7,75.4z M211.5,75.6c0,0.8,0.2,1.4,0.5,1.9c0.3,0.5,0.8,0.7,1.4,0.7c0.7,0,1.3-0.3,1.6-0.9v-3.5
		c-0.3-0.6-0.9-0.9-1.6-0.9c-0.6,0-1.1,0.2-1.4,0.7C211.7,74,211.5,74.7,211.5,75.6z"/>
	<path class="st1" d="M222.1,79.6c-1.1,0-2.1-0.4-2.8-1.1c-0.7-0.7-1.1-1.7-1.1-2.9v-0.2c0-0.8,0.2-1.5,0.5-2.1
		c0.3-0.6,0.7-1.1,1.3-1.5s1.2-0.5,1.9-0.5c1.1,0,1.9,0.3,2.5,1s0.9,1.7,0.9,2.9v0.7h-5.2c0.1,0.7,0.3,1.2,0.7,1.6
		c0.4,0.4,0.9,0.6,1.5,0.6c0.8,0,1.5-0.3,2-1l1,0.9c-0.3,0.5-0.7,0.8-1.3,1.1C223.4,79.5,222.8,79.6,222.1,79.6z M221.9,72.8
		c-0.5,0-0.9,0.2-1.2,0.5s-0.5,0.8-0.6,1.4h3.4v-0.1c0-0.6-0.2-1.1-0.5-1.4C222.8,72.9,222.4,72.8,221.9,72.8z"/>
	<g>
		<path class="st1" d="M179.3,79.6c-1.1,0-2.1-0.4-2.8-1.1c-0.7-0.7-1.1-1.7-1.1-2.9v-0.2c0-0.8,0.2-1.5,0.5-2.1
			c0.3-0.6,0.7-1.1,1.3-1.5s1.2-0.5,1.9-0.5c1.1,0,1.9,0.3,2.5,1s0.9,1.7,0.9,2.9v0.7h-5.2c0.1,0.7,0.3,1.2,0.7,1.6
			c0.4,0.4,0.9,0.6,1.5,0.6c0.8,0,1.5-0.3,2-1l1,0.9c-0.3,0.5-0.7,0.8-1.3,1.1C180.5,79.5,179.9,79.6,179.3,79.6z M179.1,72.8
			c-0.5,0-0.9,0.2-1.2,0.5s-0.5,0.8-0.6,1.4h3.4v-0.1c0-0.6-0.2-1.1-0.5-1.4C180,72.9,179.6,72.8,179.1,72.8z"/>
	</g>
	<g>
		<path class="st1" d="M229.1,71.5l0.1,0.8c0.6-0.7,1.3-1,2.3-1c1.1,0,1.8,0.4,2.2,1.2c0.6-0.8,1.4-1.2,2.5-1.2c0.9,0,1.5,0.2,2,0.7
			c0.4,0.5,0.7,1.2,0.7,2.2v5.3h-1.8v-5.2c0-0.5-0.1-0.9-0.3-1.1c-0.2-0.2-0.6-0.4-1.1-0.4c-0.4,0-0.7,0.1-1,0.3
			c-0.3,0.2-0.4,0.5-0.5,0.9l0,5.5h-1.8v-5.3c0-0.9-0.5-1.4-1.4-1.4c-0.7,0-1.2,0.3-1.5,0.9v5.8h-1.8v-8
			C227.4,71.5,229.1,71.5,229.1,71.5z"/>
	</g>
</g>
</svg>
